# xmcd CD database file
#
# Track frame offsets:
#	150
#	10278
#	22196
#	52773
#	68928
#	86207
#	108104
#	136902
#	151518
#	172791
#	201991
#	215193
#	244336
#	258768
#	281686
#
# Disc length: 4081 seconds
#
# Revision: 0
# Processed by: cddbd v1.5.2PL0 Copyright (c) Steve Scherf et al.
# Submitted via: CDex 1.70beta2
#
DISCID=cd0fef0f
DTITLE=Masekela,Hugh - The Best Of [CD1)
DYEAR=2010
DGENRE=Jazz
TTITLE0=Chisa
TTITLE1=Glazing In The Grass
TTITLE2=Ha Lese Le Di Khanna
TTITLE3=You Keep Me Hangin´ On
TTITLE4=Dyambo
TTITLE5=Languta
TTITLE6=Excuse Me Please
TTITLE7=Umanigi Bona
TTITLE8=Child Of The Earth
TTITLE9=Stimela (Coal Train)
TTITLE10=Phatasha-Phatasha
TTITLE11=Masquerada
TTITLE12=U, Dwi
TTITLE13=Unhlanhia
TTITLE14=Mamani
EXTD=YEAR: 2010
EXTT0=
EXTT1=
EXTT2=
EXTT3=
EXTT4=
EXTT5=
EXTT6=
EXTT7=
EXTT8=
EXTT9=
EXTT10=
EXTT11=
EXTT12=
EXTT13=
EXTT14=
PLAYORDER=
